<?xml version="1.0" standalone="no"?>
<!DOCTYPE svg PUBLIC "-//W3C//DTD SVG 20010904//EN"
 "http://www.w3.org/TR/2001/REC-SVG-20010904/DTD/svg10.dtd">
<svg version="1.0" xmlns="http://www.w3.org/2000/svg"
 width="1024.000000pt" height="1024.000000pt" viewBox="0 0 1024.000000 1024.000000"
 preserveAspectRatio="xMidYMid meet">

<g transform="translate(0.000000,1024.000000) scale(0.100000,-0.100000)"
fill="#000000" stroke="none">
<path d="M4935 8471 c-44 -20 -115 -92 -115 -117 0 -11 -5 -14 -17 -9 -91 36
-197 -12 -289 -129 l-30 -40 -30 42 c-39 55 -87 80 -180 93 -156 21 -250 -17
-303 -126 l-19 -39 -61 3 c-80 3 -142 -25 -184 -85 -33 -46 -35 -47 -164 -64
-265 -35 -563 -191 -733 -385 -138 -158 -245 -363 -298 -575 -14 -58 -16 -222
-19 -1600 -4 -1707 -7 -1628 63 -1839 143 -431 459 -708 939 -822 l100 -24
1435 0 c1605 0 1521 -3 1730 72 203 73 334 155 481 302 168 169 247 317 327
616 l27 100 3 1525 c3 1690 7 1576 -63 1787 -65 195 -142 327 -270 461 -185
195 -421 332 -645 377 -72 14 -89 21 -109 47 -36 45 -94 68 -173 68 l-68 0
-15 38 c-40 94 -136 152 -256 152 -98 0 -156 -20 -232 -82 -34 -27 -68 -47
-76 -46 -8 2 -23 20 -34 41 -51 98 -186 158 -279 122 -13 -5 -21 2 -33 31 -19
46 -49 80 -90 102 -47 24 -268 27 -320 3z m-607 -297 c12 -8 30 -31 39 -49 17
-35 17 -35 -26 -119 l-43 -83 -77 1 -76 1 -43 85 c-24 47 -43 91 -43 98 2 27
43 72 73 80 45 11 169 2 196 -14z m1788 -38 c19 -19 34 -42 34 -52 0 -11 -20
-52 -45 -93 l-45 -75 -78 0 -79 -1 -32 81 c-35 91 -33 115 15 153 22 18 40 21
111 21 83 0 86 -1 119 -34z m-2173 -121 c20 -9 48 -40 74 -81 41 -64 41 -67
26 -91 -9 -14 -22 -46 -28 -71 -14 -54 -25 -59 -124 -61 -48 -1 -72 4 -96 19
-33 20 -65 80 -65 121 0 21 100 152 129 169 23 14 49 12 84 -5z m1847 -116
l19 -36 -29 -44 c-16 -24 -32 -57 -36 -74 -3 -16 -8 -34 -11 -38 -3 -4 -27 23
-55 60 l-50 67 26 19 c26 19 56 96 56 146 0 24 3 22 31 -19 16 -25 39 -61 49
-81z m-1287 25 c9 -18 28 -46 42 -63 l27 -31 -24 -37 c-12 -21 -28 -47 -33
-58 -7 -13 -21 -20 -40 -20 -27 0 -31 5 -57 75 l-28 75 22 49 c13 27 32 61 43
75 l19 25 7 -30 c3 -16 13 -43 22 -60z m1877 53 c38 -19 90 -103 90 -146 0
-55 -17 -105 -45 -131 -23 -21 -30 -22 -102 -16 -118 10 -123 12 -123 56 0 26
-8 48 -25 68 -14 17 -25 36 -25 42 0 20 69 100 104 121 36 22 90 24 126 6z
m-2774 -174 c11 -51 28 -87 57 -120 l30 -34 -18 -64 c-12 -47 -15 -81 -10
-120 4 -37 3 -55 -4 -55 -6 0 -35 13 -64 30 -89 50 -163 63 -312 57 -149 -7
-192 -17 -225 -52 -34 -36 -29 -78 19 -172 23 -44 41 -82 41 -86 0 -3 -30 -15
-67 -27 -73 -22 -151 -73 -180 -117 -10 -15 -27 -56 -39 -92 -20 -62 -23 -65
-64 -77 -23 -7 -56 -25 -73 -41 l-30 -28 7 91 c20 281 162 544 391 723 109 86
231 142 400 187 120 31 133 31 141 -3z m3097 -22 c158 -54 269 -124 398 -248
141 -136 229 -287 286 -488 l28 -100 0 -1530 c0 -1192 -3 -1545 -13 -1597 -24
-130 -113 -366 -161 -427 l-19 -25 -68 41 c-159 94 -233 120 -509 178 -220 47
-453 107 -535 138 -59 22 -68 29 -95 77 -36 64 -64 86 -130 101 -27 6 -55 13
-62 15 -7 2 -20 29 -30 61 -14 46 -18 90 -17 219 l1 160 44 84 43 84 9 -34
c31 -123 78 -188 154 -214 26 -9 57 -16 69 -16 47 0 132 41 167 79 83 92 89
213 19 354 -38 75 -63 106 -156 192 -26 25 -28 31 -22 78 5 50 30 97 54 105 6
2 22 -19 36 -46 57 -112 155 -138 282 -77 82 40 148 140 161 243 7 62 -18 161
-58 225 -24 39 -28 52 -17 58 7 5 18 9 24 9 9 0 56 47 149 151 13 14 51 36 84
49 46 17 73 35 106 72 40 45 85 136 85 174 0 9 26 27 64 44 131 60 182 170
141 307 -15 52 -70 114 -113 127 -18 6 -19 13 -15 70 8 88 -8 125 -79 195
l-61 59 43 49 c95 106 125 242 77 346 -28 63 -71 94 -141 103 l-46 7 0 42 c0
58 -25 137 -52 162 -42 39 -108 63 -179 63 -64 0 -68 2 -98 35 -17 20 -31 42
-31 49 0 8 15 37 34 65 21 31 38 70 42 99 7 47 11 62 20 62 2 0 41 -13 87 -29z
m-2422 -10 c42 -42 41 -99 -2 -135 -38 -32 -66 -33 -110 -3 -29 19 -34 29 -37
69 -3 40 0 48 28 72 42 35 83 34 121 -3z m1756 7 c46 -51 54 -92 27 -134 -36
-54 -115 -71 -152 -31 -48 51 -48 138 1 172 33 23 99 20 124 -7z m-2010 -185
c28 -46 56 -73 74 -73 27 0 30 -13 15 -56 -8 -22 -19 -61 -25 -89 -15 -64 -40
-85 -101 -85 -55 0 -106 32 -155 96 -24 32 -30 49 -30 91 0 71 34 107 119 127
83 20 83 20 103 -11z m1761 -32 c28 -49 28 -57 -7 -166 l-28 -90 -48 -3 c-38
-3 -55 2 -85 23 -56 38 -57 52 -11 99 22 23 51 66 64 97 39 88 80 102 115 40z
m581 -5 c80 -41 91 -86 41 -173 -35 -62 -63 -83 -108 -83 -53 0 -69 15 -92 87
-12 38 -30 82 -41 99 -24 39 -24 80 -1 94 29 18 144 4 201 -24z m-1883 -1 c24
-14 50 -38 58 -52 12 -24 11 -33 -15 -95 -56 -137 -83 -160 -201 -173 -63 -7
-68 -6 -92 18 -28 28 -32 55 -15 127 26 115 28 120 57 120 33 0 87 32 102 59
15 28 53 27 106 -4z m1570 -167 c73 -144 61 -193 -45 -193 -60 1 -108 22 -130
57 -11 17 -7 36 20 119 32 93 34 98 64 101 41 4 51 -5 91 -84z m-2646 -24
c109 -25 181 -80 215 -161 30 -72 20 -78 -42 -25 -74 63 -119 86 -235 116 -51
13 -102 27 -113 31 -11 4 4 -7 33 -24 28 -17 52 -35 52 -39 0 -5 42 -36 93
-69 105 -70 140 -103 132 -125 -7 -17 -77 -15 -130 4 -84 31 -179 131 -216
228 l-18 49 32 10 c75 23 116 24 197 5z m3306 -2 c6 -1 19 -19 28 -40 20 -44
13 -72 -31 -126 l-26 -34 -31 19 c-38 23 -79 24 -111 3 -31 -20 -42 -13 -50
36 -8 47 22 121 56 136 16 7 126 11 165 6z m-329 -229 c35 -16 35 -17 29 -67
-3 -28 -6 -74 -6 -103 0 -60 -8 -67 -82 -78 -42 -6 -49 -4 -70 18 -24 25 -48
97 -48 142 0 84 91 129 177 88z m-1217 -11 c0 -32 -47 -53 -160 -72 -198 -33
-468 -118 -620 -193 -179 -90 -446 -287 -549 -406 -91 -104 -92 -62 -3 59 126
169 348 362 508 440 121 58 363 136 494 159 115 19 330 28 330 13z m1750 -21
c63 -46 21 -251 -51 -251 -27 0 -99 38 -106 56 -3 8 0 21 7 29 7 9 11 39 8 81
-3 62 -1 67 26 91 33 28 72 26 116 -6z m-278 -48 c62 -70 -3 -186 -84 -152
-31 13 -58 55 -58 89 0 12 13 35 29 51 35 34 88 40 113 12z m-826 -174 c136
-107 332 -352 442 -551 44 -78 111 -236 104 -242 -3 -3 0 -6 6 -6 7 0 12 -10
12 -23 0 -12 7 -33 16 -45 8 -12 13 -28 11 -35 -3 -7 -6 -5 -6 6 -1 11 -9 17
-26 17 -18 0 -25 5 -25 20 0 11 -7 20 -15 20 -14 0 -19 12 -16 33 0 4 -3 7 -9
7 -5 0 -8 6 -6 13 1 6 1 9 -1 5 -8 -15 -25 -8 -19 7 3 8 2 15 -2 15 -5 0 -25
33 -46 73 -131 251 -319 497 -493 646 -29 25 -34 34 -23 41 12 7 12 11 0 25
-8 9 -14 25 -15 36 -2 18 0 18 24 3 14 -10 53 -39 87 -65z m-738 19 c-22 -29
-47 -40 -209 -94 -366 -121 -486 -185 -746 -395 -141 -115 -316 -326 -387
-466 -53 -107 -78 -216 -83 -376 -6 -156 -15 -177 -42 -101 -10 26 -15 84 -15
174 0 112 3 149 22 215 45 155 135 306 291 487 155 181 418 367 636 451 197
76 414 132 529 136 l29 1 -25 -32z m142 -65 c-1 -16 -91 -177 -121 -214 -17
-22 -59 -59 -93 -83 -147 -105 -279 -147 -481 -153 -209 -6 -216 10 -44 103
63 34 184 90 269 124 214 86 370 162 404 199 27 28 66 42 66 24z m397 -60 c68
-46 212 -198 285 -299 120 -168 230 -372 308 -569 28 -71 60 -148 70 -170 29
-65 13 -73 -43 -19 -25 25 -74 109 -156 273 -119 235 -242 437 -329 541 -26
30 -90 101 -144 156 -54 56 -98 109 -98 117 0 25 48 11 107 -30z m1095 10 c37
-36 40 -108 6 -140 -49 -44 -101 -55 -153 -31 -47 21 -68 92 -46 152 9 23 14
24 63 19 39 -3 58 -1 73 11 26 20 24 20 57 -11z m-324 -36 c5 -67 -50 -89 -77
-30 -11 24 -10 29 11 45 13 10 32 18 43 18 17 0 21 -7 23 -33z m-976 -43 c140
-115 313 -325 438 -533 61 -103 133 -242 127 -248 -2 -2 -28 10 -58 27 -80 43
-170 64 -243 55 -58 -6 -243 -68 -319 -107 -93 -47 -145 -121 -165 -235 -17
-100 -1 -125 55 -80 38 32 103 68 103 58 0 -4 -11 -18 -25 -31 -34 -32 -54
-98 -34 -111 25 -16 48 -10 86 24 74 64 66 64 120 8 40 -41 56 -51 82 -51 54
0 99 28 128 79 15 25 28 48 30 50 6 8 33 -22 33 -37 0 -9 -19 -35 -41 -58 -48
-49 -47 -74 1 -74 17 0 48 9 69 19 36 19 101 83 101 100 0 5 14 14 30 21 42
17 74 59 90 114 17 61 6 72 -46 47 -21 -10 -52 -21 -68 -25 -26 -6 -28 -5 -22
17 5 21 1 26 -21 32 -15 3 -41 16 -57 28 -20 14 -52 24 -91 28 l-60 5 40 18
c71 33 138 31 245 -6 86 -30 97 -36 116 -72 30 -53 36 -104 28 -225 l-7 -105
-61 -55 c-153 -140 -213 -206 -243 -271 -75 -158 -60 -310 42 -435 23 -29 23
-32 9 -60 -51 -100 -275 -345 -409 -450 -146 -114 -249 -151 -389 -142 -104 6
-190 38 -292 107 -123 85 -415 385 -463 478 -11 20 -6 31 37 96 64 96 81 168
63 274 -27 162 -101 263 -285 392 -20 14 -46 40 -57 58 -20 32 -21 43 -16 185
3 84 9 162 12 174 5 16 27 28 93 49 109 35 225 39 287 9 l40 -19 -55 -6 c-30
-4 -82 -14 -115 -23 -32 -10 -69 -17 -82 -17 -20 0 -22 -4 -16 -30 4 -25 2
-30 -13 -30 -11 0 -34 9 -52 20 -18 11 -35 20 -39 20 -3 0 -3 -23 -1 -52 5
-45 11 -56 45 -87 79 -71 88 -80 112 -111 27 -36 75 -60 120 -60 45 0 47 18 7
59 -41 42 -45 65 -15 81 24 13 22 15 39 -28 19 -49 64 -82 111 -82 63 0 97 24
156 109 2 2 28 -19 58 -48 56 -53 79 -60 99 -28 9 13 6 27 -13 61 -13 25 -21
49 -20 55 2 6 26 -8 52 -30 44 -38 51 -41 74 -30 24 11 25 14 19 69 -16 137
-96 227 -259 291 -258 101 -341 102 -509 10 l-38 -20 0 22 c0 12 30 78 66 146
45 84 63 130 59 143 -6 19 -1 20 180 20 208 0 321 17 465 69 81 30 188 95 251
153 53 48 129 154 163 226 16 34 34 62 39 62 5 0 41 -25 79 -56z m-2349 -119
c-3 -9 -8 -14 -10 -11 -3 3 -2 9 2 15 9 16 15 13 8 -4z m3576 -230 c65 -33
108 -125 81 -175 -20 -37 -90 -80 -131 -80 -31 0 -42 6 -62 33 -14 17 -33 57
-42 89 l-18 56 27 46 c26 44 29 46 72 46 25 0 58 -7 73 -15z m-2523 -188 c-61
-62 -82 -94 -144 -217 -46 -93 -79 -175 -92 -227 -31 -128 -29 -313 6 -435 12
-41 -15 -13 -39 40 -68 151 -74 328 -18 499 58 176 205 375 299 403 59 18 57
8 -12 -63z m-1412 -99 c61 -102 137 -151 238 -152 77 -1 79 -5 47 -68 -37 -73
-50 -121 -59 -218 -12 -127 -3 -205 26 -239 19 -23 30 -26 77 -25 113 3 257
55 311 113 l30 31 63 -65 64 -64 -23 -43 c-19 -37 -23 -58 -23 -148 0 -96 2
-110 29 -161 l29 -56 -39 -78 c-36 -73 -38 -83 -38 -169 -1 -102 15 -149 79
-237 l36 -48 -17 -61 c-12 -42 -15 -83 -12 -138 5 -91 29 -147 96 -230 l44
-54 -6 -92 c-5 -65 -3 -105 7 -141 8 -27 16 -57 18 -65 3 -11 -42 -26 -201
-66 -333 -83 -444 -123 -581 -210 l-37 -23 -15 22 c-31 47 -85 165 -110 237
-64 187 -60 116 -64 1353 -2 620 0 1127 4 1127 5 0 17 -14 27 -32z m3712 -123
c-3 -8 -2 -15 2 -15 17 0 81 -184 88 -253 l6 -52 -21 33 c-12 18 -18 38 -15
44 4 7 2 8 -4 4 -7 -4 -13 -1 -13 8 -1 9 -3 21 -4 26 -1 6 -3 15 -4 21 0 5 -4
8 -8 6 -5 -3 -9 11 -10 31 -2 32 -11 57 -45 126 -7 13 -6 21 4 27 20 13 31 11
24 -6z m-3127 -92 c-36 -38 -75 -82 -87 -99 -22 -32 -46 -119 -37 -134 12 -20
81 10 118 52 93 104 108 119 117 113 6 -3 10 -1 10 4 0 6 4 11 9 11 16 0 -17
-103 -46 -144 -39 -55 -104 -97 -206 -131 -109 -37 -112 -35 -111 83 1 102 24
165 82 225 54 57 113 84 182 86 l34 1 -65 -67z m2941 -422 c25 -48 -5 -198
-47 -233 -15 -12 -16 -8 -9 42 26 211 33 234 56 191z m253 -103 c67 -90 18
-246 -88 -283 -49 -17 -70 -6 -101 51 -12 23 -29 40 -41 42 -19 3 -15 10 30
56 29 29 76 78 106 110 29 31 58 55 64 53 6 -2 19 -15 30 -29z m-2831 -104
c13 -26 58 -80 105 -125 64 -60 97 -83 143 -100 53 -19 61 -26 69 -56 11 -40
5 -61 -24 -85 -29 -25 -67 -22 -138 10 -43 20 -78 46 -113 85 -72 78 -98 136
-98 217 -1 110 18 129 56 54z m16 -476 c34 -42 70 -79 82 -83 19 -6 20 -11 13
-53 -4 -26 -7 -78 -6 -115 l2 -68 -30 22 c-36 25 -114 127 -136 179 -19 43
-21 146 -4 178 7 13 14 22 16 20 1 -1 30 -37 63 -80z m2475 -76 l18 -30 -48
-12 c-26 -6 -56 -12 -65 -13 -9 -1 -15 -4 -13 -7 5 -9 -14 -50 -24 -50 -25 0
24 132 58 157 21 15 49 -2 74 -45z m-2097 16 c100 -120 69 -298 -51 -298 -36
0 -79 32 -95 70 -16 39 -8 113 21 180 36 85 79 101 125 48z m-319 -412 c117
-83 261 -136 367 -136 110 1 142 20 235 140 l19 25 8 -30 c18 -72 -40 -206
-110 -252 -139 -93 -368 -58 -504 77 -49 49 -92 132 -92 177 0 43 16 43 77 -1z
m742 -373 c25 -88 3 -166 -69 -241 -92 -97 -196 -128 -325 -98 -136 32 -225
93 -266 181 -18 38 -26 115 -13 128 3 3 25 -9 49 -27 24 -18 78 -48 121 -67
66 -28 94 -34 170 -37 75 -3 100 0 135 15 63 28 106 68 141 130 16 29 34 53
38 53 5 0 14 -17 19 -37z m1214 -17 c14 -30 14 -36 2 -46 -8 -7 -27 -38 -43
-69 -15 -31 -51 -78 -79 -104 -28 -26 -56 -60 -62 -76 -9 -21 -24 -32 -65 -44
-29 -10 -74 -33 -98 -51 -32 -24 -63 -38 -106 -46 -34 -6 -76 -17 -94 -24 -18
-7 -87 -16 -153 -19 -163 -7 -180 1 -210 99 -12 40 -32 88 -44 108 -26 41 -19
45 24 16 61 -42 99 -52 210 -57 117 -6 184 6 282 48 76 32 200 121 301 213 51
47 98 86 105 86 7 0 21 -15 30 -34z m395 -292 l27 -15 -2 -322 c-1 -221 -5
-322 -12 -321 -6 1 -63 2 -127 3 l-116 1 7 43 c39 232 85 429 119 502 39 84
63 125 72 125 3 0 18 -7 32 -16z m-1457 -83 c14 -42 6 -138 -14 -177 -52 -101
-177 -168 -312 -168 -150 1 -260 58 -306 159 -18 39 -26 120 -11 113 82 -42
192 -90 227 -99 67 -17 182 -7 240 21 56 27 112 80 130 124 11 25 11 35 -1 58
-8 15 -14 35 -14 45 1 26 46 -31 61 -76z m1702 18 l37 -10 0 -227 c0 -125 -3
-257 -7 -294 l-6 -68 -53 0 -54 0 0 289 c0 159 3 296 6 305 7 19 25 20 77 5z
m253 -47 c16 -10 28 -254 19 -400 l-7 -120 -43 -12 c-24 -7 -48 -9 -54 -5 -13
7 -14 91 -4 358 l6 187 36 0 c20 0 41 -4 47 -8z m223 -53 l32 -11 -2 -183 -2
-183 -45 -21 c-24 -12 -47 -19 -50 -16 -3 3 -8 100 -10 215 l-4 210 24 0 c14
0 39 -5 57 -11z m270 -133 c14 -14 23 -27 20 -29 -2 -1 -24 -13 -49 -25 -25
-13 -36 -20 -25 -16 95 30 96 25 13 -51 l-63 -57 -3 108 c-1 59 0 114 2 121 7
18 70 -13 105 -51z m-1309 -19 c0 -52 -25 -162 -75 -323 -5 -16 -104 -29 -117
-16 -16 16 -22 126 -8 166 13 41 133 184 165 196 32 14 35 12 35 -23z m-1031
-186 c14 -44 14 -86 -1 -128 l-12 -33 -258 -1 c-142 -1 -269 -2 -283 -2 -45 0
-52 3 -63 28 -27 58 -6 111 28 70 30 -36 232 -68 349 -55 98 11 166 57 202
139 15 34 21 31 38 -18z m690 -61 l-23 -93 -115 8 c-136 8 -144 8 -277 -1
-100 -6 -101 -6 -107 17 -13 47 -12 48 101 52 133 6 297 42 376 85 33 17 62
30 64 28 2 -2 -7 -46 -19 -96z"/>
<path d="M5720 6936 c0 -2 8 -10 18 -17 15 -13 16 -12 3 4 -13 16 -21 21 -21
13z"/>
<path d="M4887 4968 c-9 -5 -24 -22 -32 -38 -14 -27 -14 -33 0 -60 20 -39 127
-111 175 -117 46 -6 119 30 187 93 37 35 44 46 38 66 -19 61 -62 73 -123 34
-61 -41 -85 -42 -144 -9 -70 39 -81 43 -101 31z"/>
<path d="M5119 4660 c-14 -4 -35 -12 -47 -19 -17 -9 -29 -8 -58 4 -55 23 -104
18 -178 -16 -45 -21 -89 -33 -132 -37 -78 -6 -82 -19 -19 -62 25 -17 63 -55
84 -84 82 -111 204 -196 281 -196 78 0 163 62 315 232 22 24 53 53 69 65 47
32 30 53 -44 53 -45 0 -76 7 -123 28 -74 34 -113 42 -148 32z"/>
<path d="M6774 3115 c-10 -8 -14 -15 -8 -15 5 0 19 7 30 15 10 8 14 15 8 15
-5 0 -19 -7 -30 -15z"/>
</g>
</svg>
