<svg width="508" height="577" xmlns="http://www.w3.org/2000/svg" preserveAspectRatio="xMidYMid meet" version="1.0">

 <g>
  <title>Layer 1</title>
  <g id="svg_1" fill="#000000" transform="translate(0, 1024) scale(0.1, -0.1)">
   <path id="svg_2" d="m2432.28394,10181c-44,-20 -115,-92 -115,-117c0,-11 -5,-14 -17,-9c-91,36 -197,-12 -289,-129l-30,-40l-30,42c-39,55 -87,80 -180,93c-156,21 -250,-17 -303,-126l-19,-39l-61,3c-80,3 -142,-25 -184,-85c-33,-46 -35,-47 -164,-64c-265,-35 -563,-191 -733,-385c-138,-158 -245,-363 -298,-575c-14,-58 -16,-222 -19,-1600c-4,-1707 -7,-1628 63,-1839c143,-431 459,-708 939,-822l100,-24l1435,0c1605,0 1521,-3 1730,72c203,73 334,155 481,302c168,169 247,317 327,616l27,100l3,1525c3,1690 7,1576 -63,1787c-65,195 -142,327 -270,461c-185,195 -421,332 -645,377c-72,14 -89,21 -109,47c-36,45 -94,68 -173,68l-68,0l-15,38c-40,94 -136,152 -256,152c-98,0 -156,-20 -232,-82c-34,-27 -68,-47 -76,-46c-8,2 -23,20 -34,41c-51,98 -186,158 -279,122c-13,-5 -21,2 -33,31c-19,46 -49,80 -90,102c-47,24 -268,27 -320,3zm-607,-297c12,-8 30,-31 39,-49c17,-35 17,-35 -26,-119l-43,-83l-77,1l-76,1l-43,85c-24,47 -43,91 -43,98c2,27 43,72 73,80c45,11 169,2 196,-14zm1788,-38c19,-19 34,-42 34,-52c0,-11 -20,-52 -45,-93l-45,-75l-78,0l-79,-1l-32,81c-35,91 -33,115 15,153c22,18 40,21 111,21c83,0 86,-1 119,-34zm-2173,-121c20,-9 48,-40 74,-81c41,-64 41,-67 26,-91c-9,-14 -22,-46 -28,-71c-14,-54 -25,-59 -124,-61c-48,-1 -72,4 -96,19c-33,20 -65,80 -65,121c0,21 100,152 129,169c23,14 49,12 84,-5zm1847,-116l19,-36l-29,-44c-16,-24 -32,-57 -36,-74c-3,-16 -8,-34 -11,-38c-3,-4 -27,23 -55,60l-50,67l26,19c26,19 56,96 56,146c0,24 3,22 31,-19c16,-25 39,-61 49,-81zm-1287,25c9,-18 28,-46 42,-63l27,-31l-24,-37c-12,-21 -28,-47 -33,-58c-7,-13 -21,-20 -40,-20c-27,0 -31,5 -57,75l-28,75l22,49c13,27 32,61 43,75l19,25l7,-30c3,-16 13,-43 22,-60zm1877,53c38,-19 90,-103 90,-146c0,-55 -17,-105 -45,-131c-23,-21 -30,-22 -102,-16c-118,10 -123,12 -123,56c0,26 -8,48 -25,68c-14,17 -25,36 -25,42c0,20 69,100 104,121c36,22 90,24 126,6zm-2774,-174c11,-51 28,-87 57,-120l30,-34l-18,-64c-12,-47 -15,-81 -10,-120c4,-37 3,-55 -4,-55c-6,0 -35,13 -64,30c-89,50 -163,63 -312,57c-149,-7 -192,-17 -225,-52c-34,-36 -29,-78 19,-172c23,-44 41,-82 41,-86c0,-3 -30,-15 -67,-27c-73,-22 -151,-73 -180,-117c-10,-15 -27,-56 -39,-92c-20,-62 -23,-65 -64,-77c-23,-7 -56,-25 -73,-41l-30,-28l7,91c20,281 162,544 391,723c109,86 231,142 400,187c120,31 133,31 141,-3zm3097,-22c158,-54 269,-124 398,-248c141,-136 229,-287 286,-488l28,-100l0,-1530c0,-1192 -3,-1545 -13,-1597c-24,-130 -113,-366 -161,-427l-19,-25l-68,41c-159,94 -233,120 -509,178c-220,47 -453,107 -535,138c-59,22 -68,29 -95,77c-36,64 -64,86 -130,101c-27,6 -55,13 -62,15c-7,2 -20,29 -30,61c-14,46 -18,90 -17,219l1,160l44,84l43,84l9,-34c31,-123 78,-188 154,-214c26,-9 57,-16 69,-16c47,0 132,41 167,79c83,92 89,213 19,354c-38,75 -63,106 -156,192c-26,25 -28,31 -22,78c5,50 30,97 54,105c6,2 22,-19 36,-46c57,-112 155,-138 282,-77c82,40 148,140 161,243c7,62 -18,161 -58,225c-24,39 -28,52 -17,58c7,5 18,9 24,9c9,0 56,47 149,151c13,14 51,36 84,49c46,17 73,35 106,72c40,45 85,136 85,174c0,9 26,27 64,44c131,60 182,170 141,307c-15,52 -70,114 -113,127c-18,6 -19,13 -15,70c8,88 -8,125 -79,195l-61,59l43,49c95,106 125,242 77,346c-28,63 -71,94 -141,103l-46,7l0,42c0,58 -25,137 -52,162c-42,39 -108,63 -179,63c-64,0 -68,2 -98,35c-17,20 -31,42 -31,49c0,8 15,37 34,65c21,31 38,70 42,99c7,47 11,62 20,62c2,0 41,-13 87,-29zm-2422,-10c42,-42 41,-99 -2,-135c-38,-32 -66,-33 -110,-3c-29,19 -34,29 -37,69c-3,40 0,48 28,72c42,35 83,34 121,-3zm1756,7c46,-51 54,-92 27,-134c-36,-54 -115,-71 -152,-31c-48,51 -48,138 1,172c33,23 99,20 124,-7zm-2010,-185c28,-46 56,-73 74,-73c27,0 30,-13 15,-56c-8,-22 -19,-61 -25,-89c-15,-64 -40,-85 -101,-85c-55,0 -106,32 -155,96c-24,32 -30,49 -30,91c0,71 34,107 119,127c83,20 83,20 103,-11zm1761,-32c28,-49 28,-57 -7,-166l-28,-90l-48,-3c-38,-3 -55,2 -85,23c-56,38 -57,52 -11,99c22,23 51,66 64,97c39,88 80,102 115,40zm581,-5c80,-41 91,-86 41,-173c-35,-62 -63,-83 -108,-83c-53,0 -69,15 -92,87c-12,38 -30,82 -41,99c-24,39 -24,80 -1,94c29,18 144,4 201,-24zm-1883,-1c24,-14 50,-38 58,-52c12,-24 11,-33 -15,-95c-56,-137 -83,-160 -201,-173c-63,-7 -68,-6 -92,18c-28,28 -32,55 -15,127c26,115 28,120 57,120c33,0 87,32 102,59c15,28 53,27 106,-4zm1570,-167c73,-144 61,-193 -45,-193c-60,1 -108,22 -130,57c-11,17 -7,36 20,119c32,93 34,98 64,101c41,4 51,-5 91,-84zm-2646,-24c109,-25 181,-80 215,-161c30,-72 20,-78 -42,-25c-74,63 -119,86 -235,116c-51,13 -102,27 -113,31c-11,4 4,-7 33,-24c28,-17 52,-35 52,-39c0,-5 42,-36 93,-69c105,-70 140,-103 132,-125c-7,-17 -77,-15 -130,4c-84,31 -179,131 -216,228l-18,49l32,10c75,23 116,24 197,5zm3306,-2c6,-1 19,-19 28,-40c20,-44 13,-72 -31,-126l-26,-34l-31,19c-38,23 -79,24 -111,3c-31,-20 -42,-13 -50,36c-8,47 22,121 56,136c16,7 126,11 165,6zm-329,-229c35,-16 35,-17 29,-67c-3,-28 -6,-74 -6,-103c0,-60 -8,-67 -82,-78c-42,-6 -49,-4 -70,18c-24,25 -48,97 -48,142c0,84 91,129 177,88zm-1217,-11c0,-32 -47,-53 -160,-72c-198,-33 -468,-118 -620,-193c-179,-90 -446,-287 -549,-406c-91,-104 -92,-62 -3,59c126,169 348,362 508,440c121,58 363,136 494,159c115,19 330,28 330,13zm1750,-21c63,-46 21,-251 -51,-251c-27,0 -99,38 -106,56c-3,8 0,21 7,29c7,9 11,39 8,81c-3,62 -1,67 26,91c33,28 72,26 116,-6zm-278,-48c62,-70 -3,-186 -84,-152c-31,13 -58,55 -58,89c0,12 13,35 29,51c35,34 88,40 113,12zm-826,-174c136,-107 332,-352 442,-551c44,-78 111,-236 104,-242c-3,-3 0,-6 6,-6c7,0 12,-10 12,-23c0,-12 7,-33 16,-45c8,-12 13,-28 11,-35c-3,-7 -6,-5 -6,6c-1,11 -9,17 -26,17c-18,0 -25,5 -25,20c0,11 -7,20 -15,20c-14,0 -19,12 -16,33c0,4 -3,7 -9,7c-5,0 -8,6 -6,13c1,6 1,9 -1,5c-8,-15 -25,-8 -19,7c3,8 2,15 -2,15c-5,0 -25,33 -46,73c-131,251 -319,497 -493,646c-29,25 -34,34 -23,41c12,7 12,11 0,25c-8,9 -14,25 -15,36c-2,18 0,18 24,3c14,-10 53,-39 87,-65zm-738,19c-22,-29 -47,-40 -209,-94c-366,-121 -486,-185 -746,-395c-141,-115 -316,-326 -387,-466c-53,-107 -78,-216 -83,-376c-6,-156 -15,-177 -42,-101c-10,26 -15,84 -15,174c0,112 3,149 22,215c45,155 135,306 291,487c155,181 418,367 636,451c197,76 414,132 529,136l29,1l-25,-32zm142,-65c-1,-16 -91,-177 -121,-214c-17,-22 -59,-59 -93,-83c-147,-105 -279,-147 -481,-153c-209,-6 -216,10 -44,103c63,34 184,90 269,124c214,86 370,162 404,199c27,28 66,42 66,24zm397,-60c68,-46 212,-198 285,-299c120,-168 230,-372 308,-569c28,-71 60,-148 70,-170c29,-65 13,-73 -43,-19c-25,25 -74,109 -156,273c-119,235 -242,437 -329,541c-26,30 -90,101 -144,156c-54,56 -98,109 -98,117c0,25 48,11 107,-30zm1095,10c37,-36 40,-108 6,-140c-49,-44 -101,-55 -153,-31c-47,21 -68,92 -46,152c9,23 14,24 63,19c39,-3 58,-1 73,11c26,20 24,20 57,-11zm-324,-36c5,-67 -50,-89 -77,-30c-11,24 -10,29 11,45c13,10 32,18 43,18c17,0 21,-7 23,-33zm-976,-43c140,-115 313,-325 438,-533c61,-103 133,-242 127,-248c-2,-2 -28,10 -58,27c-80,43 -170,64 -243,55c-58,-6 -243,-68 -319,-107c-93,-47 -145,-121 -165,-235c-17,-100 -1,-125 55,-80c38,32 103,68 103,58c0,-4 -11,-18 -25,-31c-34,-32 -54,-98 -34,-111c25,-16 48,-10 86,24c74,64 66,64 120,8c40,-41 56,-51 82,-51c54,0 99,28 128,79c15,25 28,48 30,50c6,8 33,-22 33,-37c0,-9 -19,-35 -41,-58c-48,-49 -47,-74 1,-74c17,0 48,9 69,19c36,19 101,83 101,100c0,5 14,14 30,21c42,17 74,59 90,114c17,61 6,72 -46,47c-21,-10 -52,-21 -68,-25c-26,-6 -28,-5 -22,17c5,21 1,26 -21,32c-15,3 -41,16 -57,28c-20,14 -52,24 -91,28l-60,5l40,18c71,33 138,31 245,-6c86,-30 97,-36 116,-72c30,-53 36,-104 28,-225l-7,-105l-61,-55c-153,-140 -213,-206 -243,-271c-75,-158 -60,-310 42,-435c23,-29 23,-32 9,-60c-51,-100 -275,-345 -409,-450c-146,-114 -249,-151 -389,-142c-104,6 -190,38 -292,107c-123,85 -415,385 -463,478c-11,20 -6,31 37,96c64,96 81,168 63,274c-27,162 -101,263 -285,392c-20,14 -46,40 -57,58c-20,32 -21,43 -16,185c3,84 9,162 12,174c5,16 27,28 93,49c109,35 225,39 287,9l40,-19l-55,-6c-30,-4 -82,-14 -115,-23c-32,-10 -69,-17 -82,-17c-20,0 -22,-4 -16,-30c4,-25 2,-30 -13,-30c-11,0 -34,9 -52,20c-18,11 -35,20 -39,20c-3,0 -3,-23 -1,-52c5,-45 11,-56 45,-87c79,-71 88,-80 112,-111c27,-36 75,-60 120,-60c45,0 47,18 7,59c-41,42 -45,65 -15,81c24,13 22,15 39,-28c19,-49 64,-82 111,-82c63,0 97,24 156,109c2,2 28,-19 58,-48c56,-53 79,-60 99,-28c9,13 6,27 -13,61c-13,25 -21,49 -20,55c2,6 26,-8 52,-30c44,-38 51,-41 74,-30c24,11 25,14 19,69c-16,137 -96,227 -259,291c-258,101 -341,102 -509,10l-38,-20l0,22c0,12 30,78 66,146c45,84 63,130 59,143c-6,19 -1,20 180,20c208,0 321,17 465,69c81,30 188,95 251,153c53,48 129,154 163,226c16,34 34,62 39,62c5,0 41,-25 79,-56zm-2349,-119c-3,-9 -8,-14 -10,-11c-3,3 -2,9 2,15c9,16 15,13 8,-4zm3576,-230c65,-33 108,-125 81,-175c-20,-37 -90,-80 -131,-80c-31,0 -42,6 -62,33c-14,17 -33,57 -42,89l-18,56l27,46c26,44 29,46 72,46c25,0 58,-7 73,-15zm-2523,-188c-61,-62 -82,-94 -144,-217c-46,-93 -79,-175 -92,-227c-31,-128 -29,-313 6,-435c12,-41 -15,-13 -39,40c-68,151 -74,328 -18,499c58,176 205,375 299,403c59,18 57,8 -12,-63zm-1412,-99c61,-102 137,-151 238,-152c77,-1 79,-5 47,-68c-37,-73 -50,-121 -59,-218c-12,-127 -3,-205 26,-239c19,-23 30,-26 77,-25c113,3 257,55 311,113l30,31l63,-65l64,-64l-23,-43c-19,-37 -23,-58 -23,-148c0,-96 2,-110 29,-161l29,-56l-39,-78c-36,-73 -38,-83 -38,-169c-1,-102 15,-149 79,-237l36,-48l-17,-61c-12,-42 -15,-83 -12,-138c5,-91 29,-147 96,-230l44,-54l-6,-92c-5,-65 -3,-105 7,-141c8,-27 16,-57 18,-65c3,-11 -42,-26 -201,-66c-333,-83 -444,-123 -581,-210l-37,-23l-15,22c-31,47 -85,165 -110,237c-64,187 -60,116 -64,1353c-2,620 0,1127 4,1127c5,0 17,-14 27,-32zm3712,-123c-3,-8 -2,-15 2,-15c17,0 81,-184 88,-253l6,-52l-21,33c-12,18 -18,38 -15,44c4,7 2,8 -4,4c-7,-4 -13,-1 -13,8c-1,9 -3,21 -4,26c-1,6 -3,15 -4,21c0,5 -4,8 -8,6c-5,-3 -9,11 -10,31c-2,32 -11,57 -45,126c-7,13 -6,21 4,27c20,13 31,11 24,-6zm-3127,-92c-36,-38 -75,-82 -87,-99c-22,-32 -46,-119 -37,-134c12,-20 81,10 118,52c93,104 108,119 117,113c6,-3 10,-1 10,4c0,6 4,11 9,11c16,0 -17,-103 -46,-144c-39,-55 -104,-97 -206,-131c-109,-37 -112,-35 -111,83c1,102 24,165 82,225c54,57 113,84 182,86l34,1l-65,-67zm2941,-422c25,-48 -5,-198 -47,-233c-15,-12 -16,-8 -9,42c26,211 33,234 56,191zm253,-103c67,-90 18,-246 -88,-283c-49,-17 -70,-6 -101,51c-12,23 -29,40 -41,42c-19,3 -15,10 30,56c29,29 76,78 106,110c29,31 58,55 64,53c6,-2 19,-15 30,-29zm-2831,-104c13,-26 58,-80 105,-125c64,-60 97,-83 143,-100c53,-19 61,-26 69,-56c11,-40 5,-61 -24,-85c-29,-25 -67,-22 -138,10c-43,20 -78,46 -113,85c-72,78 -98,136 -98,217c-1,110 18,129 56,54zm16,-476c34,-42 70,-79 82,-83c19,-6 20,-11 13,-53c-4,-26 -7,-78 -6,-115l2,-68l-30,22c-36,25 -114,127 -136,179c-19,43 -21,146 -4,178c7,13 14,22 16,20c1,-1 30,-37 63,-80zm2475,-76l18,-30l-48,-12c-26,-6 -56,-12 -65,-13c-9,-1 -15,-4 -13,-7c5,-9 -14,-50 -24,-50c-25,0 24,132 58,157c21,15 49,-2 74,-45zm-2097,16c100,-120 69,-298 -51,-298c-36,0 -79,32 -95,70c-16,39 -8,113 21,180c36,85 79,101 125,48zm-319,-412c117,-83 261,-136 367,-136c110,1 142,20 235,140l19,25l8,-30c18,-72 -40,-206 -110,-252c-139,-93 -368,-58 -504,77c-49,49 -92,132 -92,177c0,43 16,43 77,-1zm742,-373c25,-88 3,-166 -69,-241c-92,-97 -196,-128 -325,-98c-136,32 -225,93 -266,181c-18,38 -26,115 -13,128c3,3 25,-9 49,-27c24,-18 78,-48 121,-67c66,-28 94,-34 170,-37c75,-3 100,0 135,15c63,28 106,68 141,130c16,29 34,53 38,53c5,0 14,-17 19,-37zm1214,-17c14,-30 14,-36 2,-46c-8,-7 -27,-38 -43,-69c-15,-31 -51,-78 -79,-104c-28,-26 -56,-60 -62,-76c-9,-21 -24,-32 -65,-44c-29,-10 -74,-33 -98,-51c-32,-24 -63,-38 -106,-46c-34,-6 -76,-17 -94,-24c-18,-7 -87,-16 -153,-19c-163,-7 -180,1 -210,99c-12,40 -32,88 -44,108c-26,41 -19,45 24,16c61,-42 99,-52 210,-57c117,-6 184,6 282,48c76,32 200,121 301,213c51,47 98,86 105,86c7,0 21,-15 30,-34zm395,-292l27,-15l-2,-322c-1,-221 -5,-322 -12,-321c-6,1 -63,2 -127,3l-116,1l7,43c39,232 85,429 119,502c39,84 63,125 72,125c3,0 18,-7 32,-16zm-1457,-83c14,-42 6,-138 -14,-177c-52,-101 -177,-168 -312,-168c-150,1 -260,58 -306,159c-18,39 -26,120 -11,113c82,-42 192,-90 227,-99c67,-17 182,-7 240,21c56,27 112,80 130,124c11,25 11,35 -1,58c-8,15 -14,35 -14,45c1,26 46,-31 61,-76zm1702,18l37,-10l0,-227c0,-125 -3,-257 -7,-294l-6,-68l-53,0l-54,0l0,289c0,159 3,296 6,305c7,19 25,20 77,5zm253,-47c16,-10 28,-254 19,-400l-7,-120l-43,-12c-24,-7 -48,-9 -54,-5c-13,7 -14,91 -4,358l6,187l36,0c20,0 41,-4 47,-8zm223,-53l32,-11l-2,-183l-2,-183l-45,-21c-24,-12 -47,-19 -50,-16c-3,3 -8,100 -10,215l-4,210l24,0c14,0 39,-5 57,-11zm270,-133c14,-14 23,-27 20,-29c-2,-1 -24,-13 -49,-25c-25,-13 -36,-20 -25,-16c95,30 96,25 13,-51l-63,-57l-3,108c-1,59 0,114 2,121c7,18 70,-13 105,-51zm-1309,-19c0,-52 -25,-162 -75,-323c-5,-16 -104,-29 -117,-16c-16,16 -22,126 -8,166c13,41 133,184 165,196c32,14 35,12 35,-23zm-1031,-186c14,-44 14,-86 -1,-128l-12,-33l-258,-1c-142,-1 -269,-2 -283,-2c-45,0 -52,3 -63,28c-27,58 -6,111 28,70c30,-36 232,-68 349,-55c98,11 166,57 202,139c15,34 21,31 38,-18zm690,-61l-23,-93l-115,8c-136,8 -144,8 -277,-1c-100,-6 -101,-6 -107,17c-13,47 -12,48 101,52c133,6 297,42 376,85c33,17 62,30 64,28c2,-2 -7,-46 -19,-96z"/>
   <path id="svg_3" d="m3217.28394,8646c0,-2 8,-10 18,-17c15,-13 16,-12 3,4c-13,16 -21,21 -21,13z"/>
   <path id="svg_4" d="m2384.28394,6678c-9,-5 -24,-22 -32,-38c-14,-27 -14,-33 0,-60c20,-39 127,-111 175,-117c46,-6 119,30 187,93c37,35 44,46 38,66c-19,61 -62,73 -123,34c-61,-41 -85,-42 -144,-9c-70,39 -81,43 -101,31z"/>
   <path id="svg_5" d="m2616.28394,6370c-14,-4 -35,-12 -47,-19c-17,-9 -29,-8 -58,4c-55,23 -104,18 -178,-16c-45,-21 -89,-33 -132,-37c-78,-6 -82,-19 -19,-62c25,-17 63,-55 84,-84c82,-111 204,-196 281,-196c78,0 163,62 315,232c22,24 53,53 69,65c47,32 30,53 -44,53c-45,0 -76,7 -123,28c-74,34 -113,42 -148,32z"/>
   <path id="svg_6" d="m4271.28394,4825c-10,-8 -14,-15 -8,-15c5,0 19,7 30,15c10,8 14,15 8,15c-5,0 -19,-7 -30,-15z"/>
  </g>
 </g>
</svg>